<svg version="1.1" viewBox="0.0 0.0 218.41994750656167 201.9737532808399" fill="none" stroke="none" stroke-linecap="square" stroke-miterlimit="10" xmlns:xlink="http://www.w3.org/1999/xlink" xmlns="http://www.w3.org/2000/svg"><clipPath id="p.0"><path d="m0 0l218.41995 0l0 201.97375l-218.41995 0l0 -201.97375z" clip-rule="nonzero"/></clipPath><g clip-path="url(#p.0)"><path fill="#000000" fill-opacity="0.0" d="m0 0l218.41995 0l0 201.97375l-218.41995 0z" fill-rule="evenodd"/><path fill="#000000" fill-opacity="0.0" d="m99.78215 20.829397l0.22047424 171.84253" fill-rule="evenodd"/><path stroke="#000000" stroke-width="8.0" stroke-linejoin="round" stroke-linecap="butt" d="m99.78215 20.829397l0.22047424 171.84253" fill-rule="evenodd"/><path fill="#000000" fill-opacity="0.0" d="m117.698166 20.829397l0.9448776 171.84253" fill-rule="evenodd"/><path stroke="#000000" stroke-width="8.0" stroke-linejoin="round" stroke-linecap="butt" d="m117.698166 20.829397l0.9448776 171.84253" fill-rule="evenodd"/><path fill="#000000" d="m114.173225 22.183727l0 -12.88189l8.031502 12.88189z" fill-rule="evenodd"/><path stroke="#000000" stroke-width="1.0" stroke-linejoin="round" stroke-linecap="butt" d="m114.173225 22.183727l0 -12.88189l8.031502 12.88189z" fill-rule="evenodd"/><path fill="#000000" d="m103.32168 22.183727l0 -12.88189l-8.031494 12.88189z" fill-rule="evenodd"/><path stroke="#000000" stroke-width="1.0" stroke-linejoin="round" stroke-linecap="butt" d="m103.32168 22.183727l0 -12.88189l-8.031494 12.88189z" fill-rule="evenodd"/><path fill="#000000" fill-opacity="0.0" d="m121.66929 26.451443l0 0c49.58387 0 89.77953 21.229458 89.77953 47.417324l-89.77953 0z" fill-rule="evenodd"/><path fill="#000000" fill-opacity="0.0" d="m121.66929 26.451443l0 0c49.58387 0 89.77953 21.229458 89.77953 47.417324" fill-rule="evenodd"/><path stroke="#000000" stroke-width="8.0" stroke-linejoin="round" stroke-linecap="butt" d="m121.66929 26.451443l0 0c49.58387 0 89.77953 21.229458 89.77953 47.417324" fill-rule="evenodd"/><path fill="#000000" fill-opacity="0.0" d="m121.66929 90.67191l0 0c49.58387 0 89.77953 -7.5230255 89.77953 -16.803146l-89.77953 0z" fill-rule="evenodd"/><path fill="#000000" fill-opacity="0.0" d="m121.66929 90.67191l0 0c49.58387 0 89.77953 -7.5230255 89.77953 -16.803146" fill-rule="evenodd"/><path stroke="#000000" stroke-width="8.0" stroke-linejoin="round" stroke-linecap="butt" d="m121.66929 90.67191l0 0c49.58387 0 89.77953 -7.5230255 89.77953 -16.803146" fill-rule="evenodd"/><path fill="#000000" fill-opacity="0.0" d="m96.74971 26.451443l0 0c-49.583862 0 -89.779526 21.229458 -89.779526 47.417324l89.779526 0z" fill-rule="evenodd"/><path fill="#000000" fill-opacity="0.0" d="m96.74971 26.451443l0 0c-49.583862 0 -89.779526 21.229458 -89.779526 47.417324" fill-rule="evenodd"/><path stroke="#000000" stroke-width="8.0" stroke-linejoin="round" stroke-linecap="butt" d="m96.74971 26.451443l0 0c-49.583862 0 -89.779526 21.229458 -89.779526 47.417324" fill-rule="evenodd"/><path fill="#000000" fill-opacity="0.0" d="m96.74971 90.67191l0 0c-49.583862 0 -89.779526 -7.5230255 -89.779526 -16.803146l89.779526 0z" fill-rule="evenodd"/><path fill="#000000" fill-opacity="0.0" d="m96.74971 90.67191l0 0c-49.583862 0 -89.779526 -7.5230255 -89.779526 -16.803146" fill-rule="evenodd"/><path stroke="#000000" stroke-width="8.0" stroke-linejoin="round" stroke-linecap="butt" d="m96.74971 90.67191l0 0c-49.583862 0 -89.779526 -7.5230255 -89.779526 -16.803146" fill-rule="evenodd"/></g></svg>